<svg xmlns="http://www.w3.org/2000/svg" viewBox="0 0 32 32" fill="none">
  <!-- Dark forest background -->
  <rect width="32" height="32" rx="7" fill="#161009"/>

  <!-- Fern frond — central stem -->
  <path d="M16 28 C16 28 15 18 16 8" stroke="#8fa872" stroke-width="1.4" stroke-linecap="round"/>

  <!-- Left leaflets -->
  <path d="M15.8 22 C13 21 10 19.5 9 17" stroke="#8fa872" stroke-width="1.1" stroke-linecap="round"/>
  <path d="M15.8 19 C13 17.5 10.5 15.5 10 13" stroke="#8fa872" stroke-width="1.1" stroke-linecap="round"/>
  <path d="M15.8 16 C13.5 14.5 12 12.5 12 10" stroke="#8fa872" stroke-width="1.1" stroke-linecap="round"/>
  <path d="M15.8 13.5 C14.2 12 13.5 10.5 14 9" stroke="#7a9464" stroke-width="1" stroke-linecap="round"/>

  <!-- Right leaflets -->
  <path d="M16.2 22 C19 21 22 19.5 23 17" stroke="#8fa872" stroke-width="1.1" stroke-linecap="round"/>
  <path d="M16.2 19 C19 17.5 21.5 15.5 22 13" stroke="#8fa872" stroke-width="1.1" stroke-linecap="round"/>
  <path d="M16.2 16 C18.5 14.5 20 12.5 20 10" stroke="#8fa872" stroke-width="1.1" stroke-linecap="round"/>
  <path d="M16.2 13.5 C17.8 12 18.5 10.5 18 9" stroke="#7a9464" stroke-width="1" stroke-linecap="round"/>

  <!-- Gold soil/ground accent -->
  <ellipse cx="16" cy="28" rx="4" ry="1.2" fill="#c4923a" opacity="0.6"/>
</svg>
